<svg height="661.33331pt" viewBox="-20 -20 661.33331 661.33331" width="661.33331pt" xmlns="http://www.w3.org/2000/svg"><path d="m476.910156 308.949219h-325.691406c-13.621094 0-24.699219-10.949219-24.699219-24.410157v-203.136718c0-5.535156 4.480469-10 10-10h355.089844c5.519531 0 10 4.464844 10 10v203.128906c0 13.46875-11.078125 24.417969-24.699219 24.417969zm-330.390625-217.546875v193.128906c0 2.425781 2.109375 4.410156 4.699219 4.410156h325.691406c2.589844 0 4.699219-1.984375 4.699219-4.410156v-193.128906zm0 0"/><path d="m491.609375 91.402344h-355.089844c-5.519531 0-10-4.472656-10-10v-56.902344c0-13.5 11.121094-24.5 24.789063-24.5h325.601562c13.621094 0 24.699219 10.953125 24.699219 24.398438v57.003906c0 5.515625-4.480469 10-10 10zm-345.089844-20h335.089844v-47.003906c0-2.429688-2.109375-4.398438-4.699219-4.398438h-325.601562c-2.691406 0-4.789063 1.96875-4.789063 4.5zm0 0"/><path d="m473.367188 46.011719c0-8.308594-6.769532-15.039063-15.125-15.039063-8.359376 0-15.132813 6.730469-15.132813 15.039063 0 8.304687 6.773437 15.039062 15.132813 15.039062 8.355468 0 15.125-6.734375 15.125-15.039062zm0 0"/><path d="m434.769531 46.011719c0-8.308594-6.769531-15.039063-15.128906-15.039063-8.355469 0-15.128906 6.730469-15.128906 15.039063 0 8.304687 6.773437 15.039062 15.128906 15.039062 8.359375 0 15.128906-6.734375 15.128906-15.039062zm0 0"/><path d="m396.164062 46.011719c0-8.308594-6.78125-15.039063-15.132812-15.039063-8.355469 0-15.132812 6.730469-15.132812 15.039063 0 8.304687 6.777343 15.039062 15.132812 15.039062 8.351562 0 15.132812-6.734375 15.132812-15.039062zm0 0"/><path d="m256.25 195.25 26.75-16.261719-5.730469-16.699219-45.488281 26.546876v12.824218l45.488281 26.546875 5.730469-16.6875zm0 0"/><path d="m320.839844 149.007812-32.929688 92.492188h19.570313l32.710937-92.492188zm0 0"/><path d="m350.851562 162.289062-5.710937 16.699219 26.75 16.261719-26.75 16.269531 5.710937 16.6875 45.484376-26.546875v-12.824218zm0 0"/><path d="m475.179688 475.878906h-67.910157c-2.652343 0-5.199219-1.050781-7.070312-2.929687-1.871094-1.878907-2.929688-4.410157-2.929688-7.070313v-165.378906c0-5.53125 4.480469-10 10-10s10 4.46875 10 10v155.378906h57.910157c5.519531 0 10 4.472656 10 10 0 5.53125-4.480469 10-10 10zm0 0"/><path d="m219 475.878906h-77.910156c-5.519532 0-10-4.46875-10-10 0-5.527344 4.480468-10 10-10h67.910156v-155.378906c0-5.53125 4.480469-10 10-10 5.523438 0 10 4.46875 10 10v165.378906c0 2.660156-1.050781 5.199219-2.929688 7.070313-1.882812 1.871093-4.421874 2.929687-7.070312 2.929687zm0 0"/><path d="m314.058594 488.597656c-5.519532 0-10-4.464844-10-10v-176.648437c0-5.527344 4.480468-10 10-10 5.519531 0 10 4.472656 10 10v176.648437c0 5.535156-4.480469 10-10 10zm0 0"/><path d="m381.851562 620h-131.101562c-5.519531 0-10-4.46875-10-10v-130.332031c0-5.527344 4.480469-10 10-10h131.089844c5.519531 0 10 4.472656 10 10v130.332031c.011718 5.53125-4.472656 10-9.988282 10zm-121.101562-20h111.089844v-110.332031h-111.089844zm0 0"/><path d="m268.03125 508.390625 17.65625 11.058594-17.65625 11.058593 2.71875 7.945313 1.160156-.476563 26.121094-15.085937v-6.878906l-27.21875-15.742188zm0 0"/><path d="m313.769531 514.628906h19.332031v9.589844h-19.332031zm0 0"/><path d="m346.21875 514.628906h19.324219v9.589844h-19.324219zm0 0"/><path d="m268.03125 559.148438 17.65625 11.0625-17.65625 11.058593 2.71875 7.941407 1.160156-.46875 26.121094-15.089844v-6.886719l-27.21875-15.734375zm0 0"/><path d="m313.769531 565.390625h19.332031v9.589844h-19.332031zm0 0"/><path d="m346.21875 565.390625h19.324219v9.589844h-19.324219zm0 0"/><path d="m610 535.269531h-131.089844c-5.519531 0-10-4.46875-10-10v-130.328125c0-5.53125 4.480469-10 10-10h131.089844c5.515625 0 10 4.46875 10 10v130.328125c0 5.53125-4.484375 10-10 10zm-121.089844-20h111.089844v-110.328125h-111.089844zm0 0"/><path d="m496.179688 423.664062 17.65625 11.066407-17.65625 11.058593 2.722656 7.929688 1.167968-.46875 26.109376-15.089844v-6.878906l-27.21875-15.738281zm0 0"/><path d="m541.929688 429.914062h19.328124v9.585938h-19.328124zm0 0"/><path d="m574.378906 429.914062h19.324219v9.585938h-19.324219zm0 0"/><path d="m496.179688 474.417969 17.65625 11.070312-17.65625 11.058594 2.722656 7.9375 1.167968-.476563 26.109376-15.085937v-6.882813l-27.21875-15.742187zm0 0"/><path d="m541.929688 480.667969h19.328124v9.589843h-19.328124zm0 0"/><path d="m574.378906 480.667969h19.324219v9.589843h-19.324219zm0 0"/><path d="m141.089844 535.269531h-131.089844c-5.515625 0-10-4.46875-10-10v-130.328125c0-5.53125 4.484375-10 10-10h131.089844c5.519531 0 10 4.46875 10 10v130.328125c0 5.53125-4.46875 10-10 10zm-121.089844-20h111.089844v-110.328125h-111.089844zm0 0"/><path d="m27.28125 423.664062 17.660156 11.066407-17.660156 11.058593 2.71875 7.929688 1.164062-.46875 26.117188-15.089844v-6.878906l-27.222656-15.738281zm0 0"/><path d="m73.03125 429.914062h19.328125v9.585938h-19.328125zm0 0"/><path d="m105.46875 429.914062h19.320312v9.585938h-19.320312zm0 0"/><path d="m27.28125 474.417969 17.660156 11.070312-17.660156 11.058594 2.71875 7.9375 1.164062-.476563 26.117188-15.085937v-6.882813l-27.222656-15.742187zm0 0"/><path d="m73.03125 480.667969h19.328125v9.589843h-19.328125zm0 0"/><path d="m105.46875 480.667969h19.320312v9.589843h-19.320312zm0 0"/></svg>