<svg id="Layer_1" enable-background="new 0 0 468 468" height="512" viewBox="0 0 468 468" width="512" xmlns="http://www.w3.org/2000/svg"><g><path d="m77 14.183v53.817h314v-53.817c0-7.833-6.231-14.183-14.068-14.183h-285.864c-7.837 0-14.068 6.35-14.068 14.183z"/><path d="m446 330h-67.178c-5.523 0-9.822 4.711-9.822 10.234v22.65l-37-.156v-107.728h49.123c5.523 0 9.877-4.205 9.877-9.728v-153.272h-314v153.272c0 5.523 4.354 9.728 9.877 9.728h49.123v107.001l-37 .327v-22.094c0-5.523-4.299-10.234-9.822-10.234h-67.178c-5.523 0-10 4.711-10 10.234v67.117c0 5.523 4.477 9.649 10 9.649h67.178c5.523 0 9.822-4.126 9.822-9.649v-18.85l49.718-.501h.132c7.053 0 13.151-5.46 13.151-12.697v-120.303h59v126h-20.589c-5.523 0-10.411 4.36-10.411 9.883v67.117c0 5.523 4.888 10 10.411 10h67.178c5.523 0 10.411-4.477 10.411-10v-67.117c0-5.523-4.888-9.883-10.411-9.883h-20.59v-126h59v120.809c0 7.24 5.922 13.121 13.166 13.169l49.834.235v18.137c0 5.523 4.299 9.649 9.822 9.649h67.178c5.523 0 10-4.126 10-9.649v-67.117c0-5.522-4.477-10.233-10-10.233zm-243-164.626-25.65 12.847 25.65 12.848v19.53l-52-26.399v-11.96l52-26.394zm26.274 45.626h-18.677l28.208-73h18.777zm35.726-19.944 25.821-12.835-25.821-12.835v-19.522l52 26.285v12.145l-52 26.285z"/></g></svg>